<svg width="154" height="40" viewBox="0 0 154 40" fill="none" xmlns="http://www.w3.org/2000/svg">
<path d="M43.5417 5H11.4583C8.9375 5 6.875 6.5 6.875 8.33333V31.6667C6.875 33.5 8.9375 35 11.4583 35H43.5417C46.0625 35 48.125 33.5 48.125 31.6667V8.33333C48.125 6.5 46.0625 5 43.5417 5ZM17.6 24.9667H13.75V15H17.6688C20.6021 15 21.5875 16.7167 21.5875 17.85V22.1167C21.5875 23.25 20.625 24.9667 17.6 24.9667ZM28.3708 19.1V20.8833H25.6667V23.2H30.0896V24.9833H24.9333C24.0167 25 23.2375 24.4667 23.2146 23.8V16.25C23.1917 15.5833 23.925 15.0167 24.8417 15H30.0667V16.7833H25.6667V19.1H28.3708ZM38.6833 23.7167C37.5833 25.5667 35.6354 25.2 34.7646 23.7167L31.5563 15H34.2604L36.7125 21.85L39.1646 15H41.8688L38.6833 23.7167Z" fill="#1778F2"/>
<path d="M17.8063 16.8666H16.3625V23.15H17.8063C18.1271 23.15 18.448 23.0666 18.7688 22.8833C19.0896 22.7166 19.25 22.45 19.25 22.1V17.9C19.25 17.55 19.0896 17.2833 18.7688 17.1166C18.448 16.95 18.1271 16.8666 17.8063 16.8666Z" fill="#1778F2"/>
<path d="M71.264 12.2C72.752 12.2 74.04 12.448 75.128 12.944C76.232 13.44 77.08 14.144 77.672 15.056C78.264 15.968 78.56 17.048 78.56 18.296C78.56 19.528 78.264 20.608 77.672 21.536C77.08 22.448 76.232 23.152 75.128 23.648C74.04 24.128 72.752 24.368 71.264 24.368H67.88V29H63.992V12.2H71.264ZM71.048 21.2C72.216 21.2 73.104 20.952 73.712 20.456C74.32 19.944 74.624 19.224 74.624 18.296C74.624 17.352 74.32 16.632 73.712 16.136C73.104 15.624 72.216 15.368 71.048 15.368H67.88V21.2H71.048ZM87.1923 29.192C85.8323 29.192 84.6083 28.912 83.5203 28.352C82.4483 27.776 81.6083 26.984 81.0003 25.976C80.3923 24.968 80.0883 23.824 80.0883 22.544C80.0883 21.264 80.3923 20.12 81.0003 19.112C81.6083 18.104 82.4483 17.32 83.5203 16.76C84.6083 16.184 85.8323 15.896 87.1923 15.896C88.5523 15.896 89.7683 16.184 90.8403 16.76C91.9123 17.32 92.7523 18.104 93.3603 19.112C93.9683 20.12 94.2723 21.264 94.2723 22.544C94.2723 23.824 93.9683 24.968 93.3603 25.976C92.7523 26.984 91.9123 27.776 90.8403 28.352C89.7683 28.912 88.5523 29.192 87.1923 29.192ZM87.1923 26.12C88.1523 26.12 88.9363 25.8 89.5443 25.16C90.1683 24.504 90.4803 23.632 90.4803 22.544C90.4803 21.456 90.1683 20.592 89.5443 19.952C88.9363 19.296 88.1523 18.968 87.1923 18.968C86.2323 18.968 85.4403 19.296 84.8163 19.952C84.1923 20.592 83.8803 21.456 83.8803 22.544C83.8803 23.632 84.1923 24.504 84.8163 25.16C85.4403 25.8 86.2323 26.12 87.1923 26.12ZM101.119 29.192C100.047 29.192 98.9989 29.064 97.9749 28.808C96.9509 28.536 96.1349 28.2 95.5269 27.8L96.7749 25.112C97.3509 25.48 98.0469 25.784 98.8629 26.024C99.6789 26.248 100.479 26.36 101.263 26.36C102.847 26.36 103.639 25.968 103.639 25.184C103.639 24.816 103.423 24.552 102.991 24.392C102.559 24.232 101.895 24.096 100.999 23.984C99.9429 23.824 99.0709 23.64 98.3829 23.432C97.6949 23.224 97.0949 22.856 96.5829 22.328C96.0869 21.8 95.8389 21.048 95.8389 20.072C95.8389 19.256 96.0709 18.536 96.5349 17.912C97.0149 17.272 97.7029 16.776 98.5989 16.424C99.5109 16.072 100.583 15.896 101.815 15.896C102.727 15.896 103.631 16 104.527 16.208C105.439 16.4 106.191 16.672 106.783 17.024L105.535 19.688C104.399 19.048 103.159 18.728 101.815 18.728C101.015 18.728 100.415 18.84 100.015 19.064C99.6149 19.288 99.4149 19.576 99.4149 19.928C99.4149 20.328 99.6309 20.608 100.063 20.768C100.495 20.928 101.183 21.08 102.127 21.224C103.183 21.4 104.047 21.592 104.719 21.8C105.391 21.992 105.975 22.352 106.471 22.88C106.967 23.408 107.215 24.144 107.215 25.088C107.215 25.888 106.975 26.6 106.495 27.224C106.015 27.848 105.311 28.336 104.383 28.688C103.471 29.024 102.383 29.192 101.119 29.192ZM117.853 28.376C117.485 28.648 117.029 28.856 116.485 29C115.957 29.128 115.397 29.192 114.805 29.192C113.269 29.192 112.077 28.8 111.229 28.016C110.397 27.232 109.981 26.08 109.981 24.56V19.256H107.989V16.376H109.981V13.232H113.725V16.376H116.941V19.256H113.725V24.512C113.725 25.056 113.861 25.48 114.133 25.784C114.421 26.072 114.821 26.216 115.333 26.216C115.925 26.216 116.429 26.056 116.845 25.736L117.853 28.376ZM132.204 22.592C132.204 22.64 132.18 22.976 132.132 23.6H122.364C122.54 24.4 122.956 25.032 123.612 25.496C124.268 25.96 125.084 26.192 126.06 26.192C126.732 26.192 127.324 26.096 127.836 25.904C128.364 25.696 128.852 25.376 129.3 24.944L131.292 27.104C130.076 28.496 128.3 29.192 125.964 29.192C124.508 29.192 123.22 28.912 122.1 28.352C120.98 27.776 120.116 26.984 119.508 25.976C118.9 24.968 118.596 23.824 118.596 22.544C118.596 21.28 118.892 20.144 119.484 19.136C120.092 18.112 120.916 17.32 121.956 16.76C123.012 16.184 124.188 15.896 125.484 15.896C126.748 15.896 127.892 16.168 128.916 16.712C129.94 17.256 130.74 18.04 131.316 19.064C131.908 20.072 132.204 21.248 132.204 22.592ZM125.508 18.728C124.66 18.728 123.948 18.968 123.372 19.448C122.796 19.928 122.444 20.584 122.316 21.416H128.676C128.548 20.6 128.196 19.952 127.62 19.472C127.044 18.976 126.34 18.728 125.508 18.728ZM138.273 17.792C138.721 17.168 139.321 16.696 140.073 16.376C140.841 16.056 141.721 15.896 142.713 15.896V19.352C142.297 19.32 142.017 19.304 141.873 19.304C140.801 19.304 139.961 19.608 139.353 20.216C138.745 20.808 138.441 21.704 138.441 22.904V29H134.697V16.088H138.273V17.792Z" fill="#1778F2"/>
</svg>
